<svg id="Layer_2" data-name="Layer 2" xmlns="http://www.w3.org/2000/svg" viewBox="0 0 193.47 225.72"><defs><style>.cls-1,.cls-2{fill:#8ca0ca;}.cls-1{stroke:#fff;stroke-width:3px;}.cls-1,.cls-10,.cls-3,.cls-4,.cls-5,.cls-6{stroke-miterlimit:10;}.cls-10,.cls-3,.cls-4,.cls-5,.cls-6{fill:none;stroke-width:2px;}.cls-3{stroke:#e21f26;}.cls-4{stroke:#387eb9;}.cls-5{stroke:#4daf49;}.cls-6{stroke:#f57e20;}.cls-7{fill:#414042;}.cls-8{fill:#fff;}.cls-9{fill:#f68c63;}.cls-10{stroke:#231f20;stroke-linecap:round;}.cls-11{fill:#231f20;}.cls-12{fill:#e21f26;}.cls-13{fill:#387eb9;}.cls-14{fill:#4daf49;}.cls-15{fill:#f57e20;}</style></defs><title>logo</title><polyline class="cls-1" points="44.78 203.99 112.26 59.28 103 54.96 44.14 181.2"/><polygon class="cls-2" points="184.6 205.26 171.89 211.19 90.98 37.69 102.91 30.46 184.6 205.26"/><line class="cls-3" x1="135.49" y1="89.22" x2="159.7" y2="79.11"/><line class="cls-4" x1="137.48" y1="93.99" x2="153.38" y2="87.36"/><line class="cls-5" x1="139.48" y1="98.77" x2="148.78" y2="94.89"/><line class="cls-6" x1="141.4" y1="103.37" x2="150.93" y2="99.38"/><path class="cls-7" d="M126.59,208.41a2,2,0,0,1-.72-.13c-15.9-5.93-36.7-24.08-43.37-55.81a136.71,136.71,0,0,0-3.62,19.58,82.85,82.85,0,0,0,2.53,29,2.78,2.78,0,0,1-.45,2.44,2.93,2.93,0,0,1-2.31,1.13h0A2.73,2.73,0,0,1,76.17,203c-13.14-26.29-12-52.34-10.86-77.52l.09-2.14c1.27-28.82-19-49.78-19.22-50a1.27,1.27,0,0,1-.24-.33A67.64,67.64,0,0,1,25.1,37.37,2.74,2.74,0,0,1,25.61,35a2.92,2.92,0,0,1,2.27-1.09,2.78,2.78,0,0,1,2.52,1.63c5.25,11.23,17.65,31,41.69,37.29C94.77,78.76,102.81,88,108.68,94.7c4.53,5.19,7.52,8.62,15.09,8.62a35,35,0,0,0,6.06-.59,3.2,3.2,0,0,1,.52,0,2.82,2.82,0,0,1,.94,5.47,41.21,41.21,0,0,1-14.07,2.72A26.85,26.85,0,0,1,104.88,108l-1.25-.63-4.2-2.1c1.57,9.57,2.27,22.17,2.95,34.36.72,12.85,1.4,25,3,32.6,4.17,19.77,15.67,28.78,22.16,32.4a2,2,0,0,1,1,2.24A2,2,0,0,1,126.59,208.41Z"/><path class="cls-8" d="M27.88,35.41a1.24,1.24,0,0,1,1.16.77C34.82,48.53,47.48,68,71.71,74.28c39.65,10.36,33.28,30.54,52.06,30.54a36.69,36.69,0,0,0,6.32-.61,1.18,1.18,0,0,1,.26,0,1.32,1.32,0,0,1,.43,2.56,39.94,39.94,0,0,1-13.56,2.63,25.29,25.29,0,0,1-11.65-2.69c-.62-.31-2.7-1.33-5.78-2.89a1.31,1.31,0,0,0-1.9,1.39c3.26,19.46,2.83,52.23,6,67.38,4.26,20.21,16,29.53,22.9,33.4a.5.5,0,0,1-.23.94.48.48,0,0,1-.2,0c-12.7-4.73-35.61-20.88-42.58-55.47a1.32,1.32,0,0,0-2.58-.06,141.15,141.15,0,0,0-3.85,20.58A85,85,0,0,0,80,201.41a1.32,1.32,0,0,1-1.31,1.68,1.24,1.24,0,0,1-1.14-.73C64.18,175.67,65.78,149,66.9,123.44c1.31-29.81-19.65-51.11-19.65-51.11l.21.07A66.07,66.07,0,0,1,26.56,37a1.32,1.32,0,0,1,1.32-1.63m0-3h0a4.44,4.44,0,0,0-3.44,1.65,4.28,4.28,0,0,0-.8,3.65A69.13,69.13,0,0,0,44.78,74a4.12,4.12,0,0,0,.33.4c.2.2,20,20.77,18.79,48.86l-.09,2.13c-1.13,25.38-2.29,51.63,11,78.27a4.29,4.29,0,0,0,3.83,2.39,4.42,4.42,0,0,0,3.5-1.72,4.26,4.26,0,0,0,.71-3.74,81.37,81.37,0,0,1-2.49-28.45,109.55,109.55,0,0,1,2.17-13.26c8,28.54,27.61,45.1,42.8,50.76a3.59,3.59,0,0,0,1.25.23,3.5,3.5,0,0,0,1.69-6.56c-6.26-3.49-17.38-12.21-21.43-31.4-1.58-7.5-2.26-19.58-3-32.38-.62-11-1.25-22.42-2.53-31.63l1.62.81,1.23.62a28.29,28.29,0,0,0,13,3,42.74,42.74,0,0,0,14.59-2.81,4.32,4.32,0,0,0-1.46-8.38h0a5.12,5.12,0,0,0-.78.06,33.9,33.9,0,0,1-5.8.57c-6.88,0-9.55-3-14-8.11-6-6.87-14.21-16.29-37.34-22.33C49,65.26,36.9,45.9,31.76,34.91a4.26,4.26,0,0,0-3.88-2.5Z"/><polygon class="cls-9" points="52.26 210.6 37.86 210.6 37.86 43.01 52.4 37.79 52.26 210.6"/><path class="cls-7" d="M80.62,77.46c-5.43,0-9.36-4.15-9.36-9.87C71.26,62.4,74.79,57,80.71,57S91.9,61.79,91.9,67,86.42,77.46,80.62,77.46Z"/><path class="cls-8" d="M80.71,58.53c4.9,0,9.69,3.95,9.69,8.48S85.51,76,80.62,76s-7.86-3.84-7.86-8.37,3.06-9.06,7.95-9.06m0-3c-6.86,0-10.95,6.14-10.95,12.06C69.76,74.07,74.43,79,80.62,79,87.19,79,93.4,73.15,93.4,67S87.47,55.53,80.71,55.53Z"/><polyline class="cls-10" points="55.91 33.28 34.52 41.34 26.47 19.95"/><path class="cls-11" d="M58.17,32.43a12.09,12.09,0,0,1-3.87-.57l1.31,1.54,0,2A12.12,12.12,0,0,1,58.17,32.43Z"/><path class="cls-11" d="M25.62,17.69a12.12,12.12,0,0,0,3,2.53l-2,0-1.53,1.31A12.09,12.09,0,0,0,25.62,17.69Z"/><circle class="cls-12" cx="33.71" cy="26.26" r="1.01"/><circle class="cls-12" cx="36.71" cy="30.66" r="1.01"/><circle class="cls-12" cx="37.65" cy="27.06" r="1.01"/><circle class="cls-12" cx="33.4" cy="29.75" r="1.01"/><circle class="cls-12" cx="36.3" cy="23.12" r="1.01"/><circle class="cls-13" cx="48.35" cy="24.66" r="1.01"/><circle class="cls-13" cx="48.45" cy="29.21" r="1.01"/><circle class="cls-13" cx="52.04" cy="29.07" r="1.01"/><circle class="cls-13" cx="52.3" cy="25.46" r="1.01"/><circle class="cls-14" cx="42.35" cy="22.33" r="1.01"/><circle class="cls-15" cx="44.46" cy="15.73" r="1.01"/></svg>